<svg width="1155" height="962" xmlns="http://www.w3.org/2000/svg" xmlns:xlink="http://www.w3.org/1999/xlink" xml:space="preserve" overflow="hidden"><defs><filter id="fx0" x="-10%" y="-10%" width="120%" height="120%" filterUnits="userSpaceOnUse" primitiveUnits="userSpaceOnUse"><feComponentTransfer color-interpolation-filters="sRGB"><feFuncR type="discrete" tableValues="0.000000 0.000000"/><feFuncG type="discrete" tableValues="0.000000 0.000000"/><feFuncB type="discrete" tableValues="0.000000 0.000000"/><feFuncA type="linear" slope="0.400000" intercept="0.000000"/></feComponentTransfer><feGaussianBlur stdDeviation="5.471731 5.471731"/></filter><clipPath id="clip1"><rect x="847" y="568" width="1155" height="962"/></clipPath><clipPath id="clip2"><rect x="1" y="1" width="0" height="0"/></clipPath><clipPath id="clip3"><rect x="0" y="0" width="1150" height="960"/></clipPath></defs><g clip-path="url(#clip1)" transform="translate(-847 -568)"><g clip-path="url(#clip2)" filter="url(#fx0)" transform="translate(851 568)"><g clip-path="url(#clip3)"><path d="M19.5508-80.9961 79.707-87.2266C81.4258-73.6198 86.5104-62.8418 94.9609-54.8926 103.411-46.9434 113.151-42.9687 124.18-42.9687 136.784-42.9687 147.454-48.0892 156.191-58.3301 164.928-68.571 169.297-84.0039 169.297-104.629 169.297-123.965 164.964-138.467 156.299-148.135 147.633-157.803 136.354-162.637 122.461-162.637 105.13-162.637 89.5898-154.974 75.8398-139.648L26.8555-146.738 57.793-310.664 217.422-310.664 217.422-254.16 103.555-254.16 94.1016-200.664C107.565-207.396 121.315-210.762 135.352-210.762 162.135-210.762 184.837-201.022 203.457-181.543 222.077-162.064 231.387-136.784 231.387-105.703 231.387-79.7786 223.867-56.6471 208.828-36.3086 188.346-8.52213 159.915 5.37109 123.535 5.37109 94.4596 5.37109 70.7552-2.4349 52.4219-18.0469 34.0885-33.6588 23.1315-54.6419 19.5508-80.9961ZM423.171-115.801 423.171-168.867 560.241-168.867 560.241-43.3984C546.921-30.5078 527.62-19.1569 502.34-9.3457 477.06 0.465494 451.458 5.37109 425.534 5.37109 392.591 5.37109 363.874-1.53971 339.382-15.3613 314.889-29.1829 296.484-48.9486 284.167-74.6582 271.849-100.368 265.69-128.333 265.69-158.555 265.69-191.354 272.565-220.501 286.315-245.996 300.065-271.491 320.189-291.042 346.686-304.648 366.881-315.104 392.018-320.332 422.096-320.332 461.198-320.332 491.741-312.132 513.727-295.732 535.713-279.333 549.857-256.667 556.159-227.734L492.995-215.918C488.555-231.387 480.212-243.597 467.965-252.549 455.719-261.501 440.43-265.977 422.096-265.977 394.31-265.977 372.217-257.168 355.817-239.551 339.417-221.934 331.217-195.794 331.217-161.133 331.217-123.75 339.525-95.7129 356.139-77.0215 372.754-58.3301 394.525-48.9844 421.452-48.9844 434.772-48.9844 448.128-51.5983 461.52-56.8262 474.912-62.054 486.406-68.3919 496.003-75.8398L496.003-115.801Z" fill="#C00000" fill-rule="nonzero" fill-opacity="1" transform="matrix(1 0 0 1 281.797 578)"/></g></g><text fill="#C00000" fill-opacity="1" font-family="Arial,Arial_MSFontService,sans-serif" font-style="normal" font-variant="normal" font-weight="700" font-stretch="normal" font-size="440" text-anchor="start" direction="ltr" writing-mode="lr-tb" unicode-bidi="normal" text-decoration="none" transform="matrix(1 0 0 1 1127.02 1140)">5G</text></g></svg>